<svg xmlns="http://www.w3.org/2000/svg" xmlns:xlink="http://www.w3.org/1999/xlink" version="1.1" width="128" height="128" viewBox="0 0 512 512" xml:space="preserve">

<defs>
</defs>
<g style="stroke: none; stroke-width: 0; stroke-dasharray: none; stroke-linecap: butt; stroke-linejoin: miter; stroke-miterlimit: 10; fill: none; fill-rule: nonzero; opacity: 1;" transform="translate(1.4065934065934016 1.4065934065934016) scale(2.81 2.81)" >
	<path d="M 29.959 62.883 H 11.752 C 5.814 62.883 1 58.069 1 52.131 V 22.162 C 1 16.224 5.814 11.41 11.752 11.41 h 66.496 C 84.186 11.41 89 16.224 89 22.162 v 29.969 c 0 5.938 -4.814 10.752 -10.752 10.752 H 52.046 v 0 C 49.983 70.735 41.253 78.59 34.394 78.59 c 4.563 -5.236 5.773 -10.472 3.629 -15.708" style="stroke: none; stroke-width: 1; stroke-dasharray: none; stroke-linecap: butt; stroke-linejoin: miter; stroke-miterlimit: 10; fill: rgb(248,60,79); fill-rule: nonzero; opacity: 1;" transform=" matrix(1 0 0 1 0 0) " stroke-linecap="round" />
	<path d="M 24.338 49.388 h -5.621 c -0.552 0 -1 -0.447 -1 -1 s 0.448 -1 1 -1 h 5.621 c 2.548 0 4.621 -2.073 4.621 -4.621 s -2.073 -4.621 -4.621 -4.621 h -0.654 c -3.65 0 -6.621 -2.97 -6.621 -6.621 c 0 -3.65 2.97 -6.621 6.621 -6.621 h 3.55 c 0.552 0 1 0.448 1 1 s -0.448 1 -1 1 h -3.55 c -2.548 0 -4.621 2.073 -4.621 4.621 s 2.073 4.621 4.621 4.621 h 0.654 c 3.65 0 6.621 2.97 6.621 6.621 C 30.959 46.418 27.989 49.388 24.338 49.388 z" style="stroke: none; stroke-width: 1; stroke-dasharray: none; stroke-linecap: butt; stroke-linejoin: miter; stroke-miterlimit: 10; fill: rgb(0,0,0); fill-rule: nonzero; opacity: 1;" transform=" matrix(1 0 0 1 0 0) " stroke-linecap="round" />
	<path d="M 47.13 49.388 h -4.26 c -3.225 0 -5.848 -2.623 -5.848 -5.848 V 30.752 c 0 -3.225 2.623 -5.848 5.848 -5.848 h 4.26 c 3.225 0 5.848 2.623 5.848 5.848 V 43.54 C 52.978 46.765 50.354 49.388 47.13 49.388 z M 42.87 26.905 c -2.122 0 -3.848 1.726 -3.848 3.848 V 43.54 c 0 2.122 1.726 3.848 3.848 3.848 h 4.26 c 2.122 0 3.848 -1.726 3.848 -3.848 V 30.752 c 0 -2.122 -1.726 -3.848 -3.848 -3.848 H 42.87 z" style="stroke: none; stroke-width: 1; stroke-dasharray: none; stroke-linecap: butt; stroke-linejoin: miter; stroke-miterlimit: 10; fill: rgb(0,0,0); fill-rule: nonzero; opacity: 1;" transform=" matrix(1 0 0 1 0 0) " stroke-linecap="round" />
	<path d="M 66.315 49.388 h -5.621 c -0.553 0 -1 -0.447 -1 -1 s 0.447 -1 1 -1 h 5.621 c 2.548 0 4.621 -2.073 4.621 -4.621 s -2.073 -4.621 -4.621 -4.621 h -0.653 c -3.651 0 -6.621 -2.97 -6.621 -6.621 c 0 -3.65 2.97 -6.621 6.621 -6.621 h 3.55 c 0.553 0 1 0.448 1 1 s -0.447 1 -1 1 h -3.55 c -2.548 0 -4.621 2.073 -4.621 4.621 s 2.073 4.621 4.621 4.621 h 0.653 c 3.651 0 6.621 2.97 6.621 6.621 C 72.937 46.418 69.967 49.388 66.315 49.388 z" style="stroke: none; stroke-width: 1; stroke-dasharray: none; stroke-linecap: butt; stroke-linejoin: miter; stroke-miterlimit: 10; fill: rgb(0,0,0); fill-rule: nonzero; opacity: 1;" transform=" matrix(1 0 0 1 0 0) " stroke-linecap="round" />
	<path d="M 34.394 79.59 c -0.392 0 -0.748 -0.229 -0.91 -0.586 c -0.163 -0.356 -0.101 -0.775 0.156 -1.071 c 4.334 -4.972 5.465 -9.771 3.458 -14.671 c -0.209 -0.511 0.035 -1.095 0.546 -1.305 c 0.513 -0.208 1.096 0.037 1.304 0.547 c 2.02 4.93 1.263 9.894 -2.244 14.783 c 5.905 -1.477 12.658 -8.122 14.375 -14.658 c 0.115 -0.439 0.513 -0.746 0.967 -0.746 h 26.202 c 5.377 0 9.752 -4.375 9.752 -9.752 V 22.162 c 0 -5.377 -4.375 -9.752 -9.752 -9.752 H 11.752 C 6.375 12.41 2 16.784 2 22.162 v 29.969 c 0 5.377 4.375 9.752 9.752 9.752 h 18.207 c 0.552 0 1 0.447 1 1 s -0.448 1 -1 1 H 11.752 C 5.272 63.883 0 58.611 0 52.131 V 22.162 c 0 -6.48 5.272 -11.752 11.752 -11.752 h 66.496 C 84.729 10.41 90 15.682 90 22.162 v 29.969 c 0 6.48 -5.271 11.752 -11.752 11.752 h -25.45 C 50.281 71.922 41.393 79.59 34.394 79.59 z" style="stroke: none; stroke-width: 1; stroke-dasharray: none; stroke-linecap: butt; stroke-linejoin: miter; stroke-miterlimit: 10; fill: rgb(0,0,0); fill-rule: nonzero; opacity: 1;" transform=" matrix(1 0 0 1 0 0) " stroke-linecap="round" />
</g>
</svg>